<?xml version="1.0" encoding="utf-8"?>
<!-- Generator: Adobe Illustrator 24.1.0, SVG Export Plug-In . SVG Version: 6.00 Build 0)  -->
<svg version="1.1" id="Calque_1" xmlns="http://www.w3.org/2000/svg" xmlns:xlink="http://www.w3.org/1999/xlink" x="0px" y="0px"
	 viewBox="0 0 500 500" style="enable-background:new 0 0 500 500;" xml:space="preserve">
<style type="text/css">
	.st0{fill:#B4CEF9;}
	.st1{opacity:0.89;}
	.st2{opacity:0.12;clip-path:url(#SVGID_2_);fill:#FFFFFF;enable-background:new    ;}
	.st3{opacity:0.12;clip-path:url(#SVGID_4_);fill:#FFFFFF;enable-background:new    ;}
	.st4{opacity:0.12;clip-path:url(#SVGID_6_);fill:#FFFFFF;enable-background:new    ;}
	.st5{opacity:0.12;clip-path:url(#SVGID_8_);fill:#FFFFFF;enable-background:new    ;}
	.st6{opacity:0.2;clip-path:url(#SVGID_10_);fill:#FFFFFF;enable-background:new    ;}
	.st7{opacity:0.2;clip-path:url(#SVGID_12_);fill:#FFFFFF;enable-background:new    ;}
	.st8{opacity:0.2;clip-path:url(#SVGID_14_);fill:#FFFFFF;enable-background:new    ;}
	.st9{opacity:0.2;clip-path:url(#SVGID_16_);fill:#FFFFFF;enable-background:new    ;}
	.st10{display:none;}
	.st11{display:inline;}
	.st12{fill:#FFFFFF;}
	.st13{display:inline;opacity:0.43;}
	.st14{fill:#C5D9FF;}
	.st15{opacity:0.43;fill:#C5D9FF;enable-background:new    ;}
	.st16{opacity:0.57;fill:#C5D9FF;enable-background:new    ;}
	.st17{fill:none;}
	.st18{fill:#243762;}
	.st19{fill:#AF9CDA;}
	.st20{font-family:'ArialMT';}
	.st21{font-size:7px;}
	.st22{font-size:7.4428px;}
	.st23{font-size:6.7699px;}
	.st24{font-size:6px;}
	.st25{opacity:0.47;}
	.st26{font-size:6.9849px;}
	.st27{opacity:0.57;}
	.st28{font-size:7.7398px;}
	.st29{font-size:16.1063px;}
	.st30{opacity:0.41;}
	.st31{opacity:0.31;fill:#C5D9FF;enable-background:new    ;}
	.st32{fill:#ECF1F7;}
	.st33{opacity:0.26;}
	.st34{display:inline;fill:#F7A9B4;}
	.st35{display:inline;fill:#243762;}
	.st36{display:inline;opacity:0.25;fill:#FFFFFF;enable-background:new    ;}
</style>
<g id="BACKGROUND">
	<rect x="0.5" y="0" class="st0" width="499.3" height="500"/>
	<g class="st1">
		<g>
			<defs>
				<polygon id="SVGID_1_" points="500.5,0.3 500.5,496.2 1.2,500 1.2,347.7 1.5,0 				"/>
			</defs>
			<clipPath id="SVGID_2_">
				<use xlink:href="#SVGID_1_"  style="overflow:visible;"/>
			</clipPath>
			<path class="st2" d="M150.2,376.4c0-14.8-1.6-28.7-4.9-40.8c-7.6-28.1-19.5-42.2-28.2-49.2c-14.9-11.9-29.1-14.6-40-7.5
				c-11.6,7.5-15.7,23-20.1,39.4c-4,15-8.1,30.4-18.3,40.2c-9.2,8.8-18.2,4-27.7-1.1c-9.4-5.1-19.2-10.3-29.9-2.6
				c-11.4,8.2-20.7,27.2-21.6,44.3c-0.7,12.4,2.8,27.4,9.9,43.3c7.1,15.7,17.1,30.9,29,43.9c32,35.1,68,45.1,96.3,26.8
				c20.5-13.2,37.9-41.8,47.6-78.4C147.6,415.4,150.2,395.2,150.2,376.4z"/>
		</g>
		<g>
			<defs>
				<polygon id="SVGID_3_" points="500.5,0.3 500.5,496.2 1.2,500 1.2,347.7 1.5,0 				"/>
			</defs>
			<clipPath id="SVGID_4_">
				<use xlink:href="#SVGID_3_"  style="overflow:visible;"/>
			</clipPath>
			<path class="st3" d="M390.6,113.4c0-14.8-1.6-28.7-4.9-40.8c-7.6-28.1-19.5-42.2-28.2-49.2c-14.9-11.9-29.1-14.6-40-7.5
				c-11.6,7.5-15.7,23-20.1,39.4c-4,15-8.1,30.4-18.3,40.2c-9.2,8.8-18.2,4-27.7-1.1c-9.4-5.1-19.2-10.3-29.9-2.6
				c-11.4,8.2-20.7,27.2-21.6,44.3c-0.7,12.4,2.8,27.4,9.9,43.3c7.1,15.7,17.1,30.9,29,43.9c32,35.1,68,45.1,96.3,26.8
				c20.5-13.2,37.9-41.8,47.6-78.4C388,152.4,390.6,132.2,390.6,113.4z"/>
		</g>
		<g>
			<defs>
				<polygon id="SVGID_5_" points="500.5,0.3 500.5,496.2 1.2,500 1.2,347.7 1.5,0 				"/>
			</defs>
			<clipPath id="SVGID_6_">
				<use xlink:href="#SVGID_5_"  style="overflow:visible;"/>
			</clipPath>
			<path class="st4" d="M559.8,240.1c0-14.8-1.6-28.7-4.9-40.8c-7.6-28.1-19.5-42.2-28.2-49.2c-14.9-11.9-29.1-14.6-40-7.5
				c-11.6,7.5-15.7,23-20.1,39.4c-4,15-8.1,30.4-18.3,40.2c-9.2,8.8-18.2,4-27.7-1.1c-9.4-5.1-19.2-10.3-29.9-2.6
				c-11.4,8.2-20.7,27.2-21.6,44.3c-0.7,12.4,2.8,27.4,9.9,43.3c7.1,15.7,17.1,30.9,29,43.9c32,35.1,68,45.1,96.3,26.8
				c20.5-13.2,37.9-41.8,47.6-78.4C557.2,279.1,559.8,258.9,559.8,240.1z"/>
		</g>
		<g>
			<defs>
				<polygon id="SVGID_7_" points="500.5,0.3 500.5,496.2 1.2,500 1.2,347.7 1.5,0 				"/>
			</defs>
			<clipPath id="SVGID_8_">
				<use xlink:href="#SVGID_7_"  style="overflow:visible;"/>
			</clipPath>
			<path class="st5" d="M142.3,53.5c0-14.8-1.6-28.7-4.9-40.8c-7.6-28.1-19.5-42.2-28.2-49.2C94.3-48.3,80.1-51,69.2-44
				C57.6-36.5,53.5-21,49.1-4.6c-4,15-8.1,30.4-18.3,40.2c-9.2,8.8-18.2,4-27.7-1.1c-9.3-5-19.1-10.3-29.8-2.5
				c-11.4,8.2-20.7,27.2-21.6,44.3c-0.7,12.4,2.8,27.4,9.9,43.3c7.1,15.7,17.1,30.9,29,43.9c32,35.1,68,45.1,96.3,26.8
				c20.5-13.2,37.9-41.8,47.6-78.4C139.7,92.5,142.3,72.3,142.3,53.5z"/>
		</g>
		<g>
			<defs>
				<polygon id="SVGID_9_" points="500.5,0.3 500.5,496.2 1.2,500 1.2,347.7 1.5,0 				"/>
			</defs>
			<clipPath id="SVGID_10_">
				<use xlink:href="#SVGID_9_"  style="overflow:visible;"/>
			</clipPath>
			<path class="st6" d="M139.3,349.1c-0.7,0-1.4,0-2.1-0.1c-11.4-1.4-24-15.7-29.5-33.2c-5.2-16.5-1.7-31.5,1.7-45.9
				c3.3-14.3,6.5-27.8,0.8-41.5c-6.4-15.3-16.5-21.5-26.3-27.5C73,194.3,62.7,188,57.7,170.2c-4.7-16.7-2.9-38.4,5-61.2
				c4.6-13.3,14-31.5,32.6-43.1l0,0c18.2-11.3,42.7-9.6,65.7,4.4c24.2,14.8,43.1,41.3,51.8,72.6c6.5,23.1,7.7,48.8,3.7,76.4
				c-3.5,24-10.9,48.3-21.4,70.4C177.9,325.7,155.8,349.1,139.3,349.1z M122.3,59c-9.7,0-18.9,2.4-26.9,7.4
				C76.9,77.9,67.6,96,63,109.2c-7.8,22.6-9.6,44.2-5,60.7c4.9,17.7,15.2,23.9,26,30.5c9.9,6,20,12.2,26.5,27.7
				c5.8,13.9,2.6,27.6-0.7,42c-3.3,14.3-6.8,29.1-1.7,45.4c5.4,17.3,17.9,31.5,29.2,32.8c8.2,1,18.1-4.2,28.5-15.1
				c10.3-10.7,20.3-25.9,28.9-44c23.1-48.6,29.7-103.3,17.7-146.2c-8.7-31.2-27.5-57.5-51.6-72.3C148,63,134.7,59,122.3,59z"/>
		</g>
		<g>
			<defs>
				<polygon id="SVGID_11_" points="500.5,0.3 500.5,496.2 1.2,500 1.2,347.7 1.5,0 				"/>
			</defs>
			<clipPath id="SVGID_12_">
				<use xlink:href="#SVGID_11_"  style="overflow:visible;"/>
			</clipPath>
			<path class="st7" d="M290.6,514c-0.6,0.5-1.2,1-1.8,1.4c-10.4,7.1-26,3.8-36.4-7.6c-9.8-10.8-11.4-26.4-13-41.5
				c-1.6-15-3.1-29.1-12.5-37c-10.5-8.8-21.3-6.8-31.8-4.9c-11.7,2.1-22.7,4.1-32.7-7.9c-9.4-11.2-14.7-31.6-15-57.3
				c-0.2-15,2.3-37.9,14.9-61.6l0,0c12.4-23.2,34.4-39.6,59-44c25.9-4.6,50.9,4.8,68.5,25.9c13,15.5,22.2,37.2,27.4,64.4
				c4.5,23.6,5.7,50.3,3.5,77.3C317,465.2,305.1,501.9,290.6,514z M183.8,271.9c-8.5,7.1-15.8,15.9-21.2,26.1
				c-12.6,23.6-15,46.3-14.8,61.2c0.3,25.5,5.6,45.7,14.9,56.9c9.9,11.9,20.9,9.9,32.4,7.8c10.6-1.9,21.5-3.9,32,5
				c9.5,8,11,22.3,12.7,37.4c1.6,15,3.3,30.5,12.9,41.1c10.2,11.3,25.7,14.5,36,7.5c7.5-5.1,14.5-16.9,20.3-34
				c5.7-16.9,9.6-37.6,11.4-59.7c4.9-59.5-6.6-112.2-30.8-141.1c-17.5-21-42.4-30.3-68.2-25.7C207.6,256.7,194.7,262.9,183.8,271.9z
				"/>
		</g>
		<g>
			<defs>
				<polygon id="SVGID_13_" points="500.5,0.3 500.5,496.2 1.2,500 1.2,347.7 1.5,0 				"/>
			</defs>
			<clipPath id="SVGID_14_">
				<use xlink:href="#SVGID_13_"  style="overflow:visible;"/>
			</clipPath>
			<path class="st8" d="M473.9,604.4c-0.6,0.5-1.2,1-1.8,1.4c-10.4,7.1-26,3.8-36.4-7.6c-9.8-10.8-11.4-26.4-13-41.5
				c-1.6-15-3.1-29.1-12.5-37c-10.5-8.8-21.3-6.8-31.8-4.9c-11.7,2.1-22.7,4.1-32.7-7.9c-9.4-11.2-14.7-31.6-15-57.3
				c-0.2-15,2.3-37.9,14.9-61.6l0,0c12.4-23.2,34.4-39.6,59-44c25.9-4.6,50.9,4.8,68.5,25.9c13,15.5,22.2,37.2,27.4,64.4
				c4.5,23.6,5.7,50.3,3.5,77.3C500.3,555.7,488.4,592.4,473.9,604.4z M367.1,362.4c-8.5,7.1-15.8,15.9-21.2,26.1
				c-12.6,23.6-15,46.3-14.8,61.2c0.3,25.5,5.6,45.7,14.9,56.9c9.9,11.9,20.9,9.9,32.4,7.8c10.6-1.9,21.5-3.9,32,5
				c9.5,8,11,22.3,12.7,37.4c1.6,15,3.3,30.5,12.9,41.1c10.2,11.3,25.7,14.5,36,7.5c7.5-5.1,14.5-16.9,20.3-34
				c5.7-16.9,9.6-37.6,11.4-59.7c4.9-59.5-6.6-112.2-30.8-141.1c-17.5-21-42.4-30.4-68.2-25.7C390.9,347.1,378,353.4,367.1,362.4z"
				/>
		</g>
		<g>
			<defs>
				<polygon id="SVGID_15_" points="500.5,0.3 500.5,496.2 1.2,500 1.2,347.7 1.5,0 				"/>
			</defs>
			<clipPath id="SVGID_16_">
				<use xlink:href="#SVGID_15_"  style="overflow:visible;"/>
			</clipPath>
			<path class="st9" d="M485.2,216.8c-0.6,0.5-1.2,1-1.8,1.4c-10.4,7.1-26,3.8-36.4-7.6c-9.8-10.8-11.4-26.4-13-41.5
				c-1.6-15-3.1-29.1-12.5-37c-10.5-8.8-21.3-6.8-31.8-4.9c-11.7,2.1-22.7,4.1-32.7-7.9c-9.4-11.2-14.7-31.6-15-57.3
				c-0.2-15,2.3-37.9,14.9-61.6l0,0c12.4-23.2,34.4-39.6,59-44c25.9-4.6,50.9,4.8,68.5,25.9c13,15.5,22.2,37.2,27.4,64.4
				c4.5,23.6,5.7,50.3,3.5,77.3C511.7,168.1,499.8,204.7,485.2,216.8z M378.5-25.3c-8.5,7.1-15.8,15.9-21.2,26.1
				c-12.6,23.6-15,46.3-14.8,61.2c0.3,25.5,5.6,45.7,14.9,56.9c9.9,11.9,20.9,9.9,32.4,7.8c10.6-1.9,21.5-3.9,32,5
				c9.5,8,11,22.3,12.7,37.4c1.6,15,3.3,30.5,12.9,41.1c10.2,11.3,25.7,14.5,36,7.5c7.5-5.1,14.5-16.9,20.3-34
				c5.7-16.9,9.6-37.6,11.4-59.7c4.9-59.5-6.6-112.2-30.8-141.1c-17.5-21-42.4-30.3-68.2-25.7C402.3-40.5,389.3-34.3,378.5-25.3z"/>
		</g>
	</g>
</g>
<g id="OBJECTS" class="st10">
	<g class="st11">
		<g>
			<path class="st12" d="M371.2,437.2H117.4c-4.2,0-7.5-3.4-7.5-7.5l0,0v-373c0-4.2,3.4-7.5,7.5-7.5l215.5-0.5h50.4
				c4.2,0,7.5,3.4,7.5,7.5v373.5c0,4.2-3.4,7.5-7.5,7.5H371.2z"/>
		</g>
	</g>
	<g class="st13">
		<path class="st14" d="M383.2,48.8H116.8c-3.9,0-7,3.1-7,7v206.4h280.9V56.4C390.8,52.2,387.4,48.8,383.2,48.8z"/>
		<path class="st14" d="M391.3,262.8h-282v-207c0-4.1,3.4-7.5,7.5-7.5h266.4c4.5,0,8.1,3.6,8.1,8.1L391.3,262.8L391.3,262.8z
			 M110.3,261.8h279.9V56.4c0-3.9-3.2-7.1-7.1-7.1H116.8c-3.6,0-6.5,2.9-6.5,6.5V261.8z"/>
	</g>
	<g class="st11">
		<g>
			<g>
				<path class="st15" d="M157.3,93.9h-47.5V69.5h47.5c6.7,0,12.2,5.5,12.2,12.2l0,0C169.5,88.4,164,93.9,157.3,93.9z"/>
				<path class="st16" d="M130.6,93.9h-20.7V69.5h20.7c6.7,0,12.2,5.5,12.2,12.2l0,0C142.8,88.4,137.3,93.9,130.6,93.9z"/>
				<g>
					<path class="st17" d="M144.6,79.9c-0.1-0.1-0.4-0.2-0.6-0.2c-0.3,0-0.5,0.1-0.6,0.2c-0.2,0.2-0.3,0.5-0.3,0.9v1.7
						c0,0.4,0.1,0.7,0.3,0.9c0.1,0.1,0.4,0.2,0.6,0.2c0.3,0,0.5-0.1,0.6-0.2c0.2-0.2,0.3-0.5,0.3-0.9v-1.7h2.3h-2.3
						C144.9,80.4,144.8,80.1,144.6,79.9z"/>
					<path class="st17" d="M160.3,79.9c-0.1-0.1-0.4-0.2-0.6-0.2c-0.3,0-0.5,0.1-0.6,0.2c-0.2,0.2-0.3,0.5-0.3,0.9v1.7
						c0,0.4,0.1,0.7,0.3,0.9c0.1,0.1,0.4,0.2,0.6,0.2c0.3,0,0.5-0.1,0.6-0.2c0.2-0.2,0.3-0.5,0.3-0.9v-1.7h2.3h-2.3
						C160.6,80.4,160.5,80.1,160.3,79.9z"/>
					<path class="st18" d="M135.4,85.7L135.4,85.7c0.1,0,0.2,0,0.3,0h3.3c0.3,0,0.6-0.1,0.8-0.3c0.2-0.2,0.3-0.5,0.3-0.8
						s-0.1-0.6-0.3-0.8c-0.2-0.2-0.5-0.3-0.8-0.3h-2.2v-5c0-0.3-0.1-0.6-0.3-0.8c-0.2-0.2-0.5-0.3-0.8-0.3s-0.6,0.1-0.8,0.3
						c-0.2,0.2-0.3,0.5-0.3,0.8v5.9c0,0.1,0,0.1,0,0.2c0,0.3,0.1,0.5,0.3,0.7C134.9,85.6,135.1,85.7,135.4,85.7z"/>
					<path class="st18" d="M144,85.8c0.8,0,1.6-0.3,2.2-0.9c0.6-0.6,1-1.4,1-2.5v-1.7h-2.3v1.7c0,0.4-0.1,0.7-0.3,0.9
						c-0.1,0.1-0.4,0.2-0.6,0.2c-0.3,0-0.5-0.1-0.6-0.2c-0.2-0.2-0.3-0.5-0.3-0.9v-1.7c0-0.4,0.1-0.7,0.3-0.9
						c0.1-0.1,0.4-0.2,0.6-0.2c0.3,0,0.5,0.1,0.6,0.2c0.2,0.2,0.3,0.5,0.3,0.9h2.3c0-1-0.4-1.9-1-2.5s-1.4-0.9-2.2-0.9
						s-1.6,0.3-2.2,0.9c-0.6,0.6-1,1.4-1,2.5v1.7c0,1,0.4,1.9,1,2.5C142.3,85.5,143.1,85.8,144,85.8z"/>
					<path class="st18" d="M151.9,85.8c0.7,0,1.3-0.2,1.8-0.5c0.6-0.4,1-0.9,1.3-1.6c0-0.1,0.1-0.2,0.1-0.4c0-0.1,0-0.2,0-0.4v-1.1
						c0-0.3-0.1-0.6-0.3-0.8c-0.2-0.2-0.5-0.3-0.8-0.3h-1c-0.3,0-0.6,0.1-0.8,0.3c-0.2,0.2-0.3,0.5-0.3,0.8s0.1,0.6,0.3,0.8
						c0.2,0.2,0.5,0.3,0.8,0.3h0.1V83c-0.1,0.2-0.2,0.3-0.4,0.4s-0.4,0.2-0.7,0.2s-0.4,0-0.6-0.1c-0.2-0.1-0.3-0.4-0.3-0.9v-1.8
						c0-0.4,0.1-0.7,0.3-0.9c0.2-0.1,0.4-0.1,0.6-0.1c0.2,0,0.3,0,0.4,0c0.2,0.1,0.3,0.1,0.4,0.3c0,0,0.1,0.1,0.1,0.2
						c0.2,0.3,0.4,0.4,0.8,0.4c0.3,0,0.6-0.1,0.8-0.3c0.2-0.2,0.3-0.5,0.3-0.8s-0.1-0.5-0.2-0.7c-0.3-0.4-0.6-0.7-1-0.9
						c-0.5-0.3-1-0.4-1.6-0.4c-0.9,0-1.6,0.3-2.2,0.8c-0.6,0.6-1,1.4-1,2.4v1.8c0,1,0.4,1.9,1,2.4C150.3,85.5,151.1,85.8,151.9,85.8
						z"/>
					<path class="st18" d="M159.7,85.8c0.8,0,1.6-0.3,2.2-0.9c0.6-0.6,1-1.4,1-2.5v-1.7h-2.3v1.7c0,0.4-0.1,0.7-0.3,0.9
						c-0.1,0.1-0.4,0.2-0.6,0.2c-0.3,0-0.5-0.1-0.6-0.2c-0.2-0.2-0.3-0.5-0.3-0.9v-1.7c0-0.4,0.1-0.7,0.3-0.9
						c0.1-0.1,0.4-0.2,0.6-0.2c0.3,0,0.5,0.1,0.6,0.2c0.2,0.2,0.3,0.5,0.3,0.9h2.3c0-1-0.4-1.9-1-2.5s-1.4-0.9-2.2-0.9
						s-1.6,0.3-2.2,0.9c-0.6,0.6-1,1.4-1,2.5v1.7c0,1,0.4,1.9,1,2.5C158,85.5,158.8,85.8,159.7,85.8z"/>
				</g>
			</g>
			<g>
				<g>
					<g>
						<path class="st19" d="M376.3,73h-69.4c-0.5,0-1,0.3-1,0.7v16.8c0,0.4,0.4,0.7,1,0.7h69.4c0.5,0,1-0.3,1-0.7V73.7
							C377.3,73.3,376.8,73,376.3,73z"/>
					</g>
					<g>
						<text transform="matrix(1 0 0 1 317.1051 84.238)" class="st12 st20 st21">Create Account</text>
					</g>
				</g>
			</g>
		</g>
		<g>
			<g>
				<g>
					<rect x="150.6" y="220.8" class="st17" width="198.9" height="43.2"/>
					<text transform="matrix(1 0 0 1 156.2672 226.0571)" class="st18 st20 st22">Lorem ipsum dolor sit amet, consectetuer adipiscing elit, sed </text>
					<text transform="matrix(1 0 0 1 160.5672 234.8571)" class="st18 st20 st22">diam nonummy nibhui smod tincidunt ut laoreet jkdolore </text>
					<text transform="matrix(1 0 0 1 238.3672 243.5571)" class="st18 st20 st22">magna.</text>
				</g>
			</g>
		</g>
		<g>
			<text transform="matrix(1 0 0 1 227.7454 305.9316)" class="st18 st20 st23">Welcome back</text>
			<g>
				<text transform="matrix(1 0 0 1 196.9157 376.2169)" class="st18 st20 st24">Remember</text>
			</g>
			<g>
				<text transform="matrix(1 0 0 1 254.6158 376.2169)" class="st18 st20 st24">Forgot password?</text>
			</g>
			<path class="st16" d="M193.4,376.2h-3.1c-0.4,0-0.6-0.3-0.6-0.6v-2.3c0-0.4,0.3-0.6,0.6-0.6h3.1c0.4,0,0.6,0.3,0.6,0.6v2.3
				C194,375.9,193.7,376.2,193.4,376.2z"/>
			<g>
				<g>
					<path class="st16" d="M309.4,334.1H190.6c-0.5,0-0.9-0.4-0.9-0.9v-13.6c0-0.5,0.4-0.9,0.9-0.9h118.8c0.5,0,0.9,0.4,0.9,0.9
						v13.6C310.4,333.7,309.9,334.1,309.4,334.1z"/>
					<g>
						<g>
							<g class="st25">
								<path class="st12" d="M205.4,325.9c0,3.2-2.6,5.7-5.7,5.7c-3.2,0-5.7-2.6-5.7-5.7c0-3.2,2.6-5.7,5.7-5.7
									C202.9,320.2,205.4,322.8,205.4,325.9z"/>
							</g>
							<path class="st12" d="M201.8,324.1c0,1.1-0.9,2-2,2s-2-0.9-2-2s0.9-2,2-2C200.9,322.1,201.8,323,201.8,324.1z"/>
							<path class="st12" d="M201.9,329.4c1,0,1.6-1.1,1.1-1.9c-0.7-1.1-1.9-1.9-3.3-1.9c-1.4,0-2.6,0.8-3.3,1.9
								c-0.5,0.9,0.2,1.9,1.1,1.9H201.9z"/>
						</g>
					</g>
					<g>
						<text transform="matrix(1 0 0 1 215.8375 328.4219)" class="st12 st20 st26">Email or Username</text>
					</g>
				</g>
				<g>
					<path class="st16" d="M309.4,359.8H190.6c-0.5,0-0.9-0.4-0.9-0.9v-13.6c0-0.5,0.4-0.9,0.9-0.9h118.8c0.5,0,0.9,0.4,0.9,0.9
						v13.6C310.4,359.4,309.9,359.8,309.4,359.8z"/>
					<g>
						<g>
							<g class="st25">
								<path class="st12" d="M205.4,352c0,3.2-2.6,5.7-5.7,5.7c-3.2,0-5.7-2.6-5.7-5.7c0-3.2,2.6-5.7,5.7-5.7
									C202.9,346.3,205.4,348.9,205.4,352z"/>
							</g>
							<path class="st12" d="M202,355.7h-4.5c-0.2,0-0.3-0.1-0.3-0.3v-4.3c0-0.2,0.1-0.3,0.3-0.3h4.5c0.2,0,0.3,0.1,0.3,0.3v4.3
								C202.3,355.6,202.2,355.7,202,355.7z"/>
							<path class="st12" d="M201.7,351.2h-0.5v-1.7c0-0.5-0.4-0.9-0.9-0.9h-0.9c-0.6,0-1.1,0.5-1.1,1.1v1.4h-0.5v-1.4
								c0-0.9,0.7-1.6,1.6-1.6h0.9c0.8,0,1.4,0.6,1.4,1.4V351.2z"/>
							<g class="st27">
								<path class="st14" d="M200.3,352.7c0-0.3-0.3-0.6-0.6-0.6s-0.6,0.3-0.6,0.6c0,0.2,0.1,0.4,0.3,0.5v1.2h0.6v-1.2
									C200.2,353.1,200.3,352.9,200.3,352.7z"/>
							</g>
						</g>
					</g>
					<g>
						<text transform="matrix(1 0 0 1 215.2074 353.9634)" class="st12 st20 st26">Password</text>
					</g>
				</g>
			</g>
			<path class="st19" d="M279.1,392h-58.3c-0.5,0-0.8,0.4-0.8,0.8v19.7c0,0.5,0.4,0.8,0.8,0.8h58.3c0.5,0,0.8-0.4,0.8-0.8v-19.7
				C280,392.3,279.6,392,279.1,392z"/>
			<text transform="matrix(1 0 0 1 238.7619 405.7798)" class="st12 st20 st28">LOGIN</text>
			<g>
				<text transform="matrix(1 0 0 1 207.1023 296.2637)" class="st18 st20 st29">USER LOGIN</text>
			</g>
		</g>
	</g>
	<g class="st11">
		<g class="st30">
			<g>
				<path class="st14" d="M323.7,177.5c0.8-19-8.5-35.2-22.7-44.4c-2.6-1.7-4.4-4.6-4.7-7.7c0-0.2,0-0.3-0.1-0.5
					c-2.6-20.8-22-35.4-42.8-32.6c-19.8,2.7-34.1,13.2-32,33.3c0,0.1,0,0.2,0,0.4c0.4,5.5-3.9,10.1-9.4,10.2c-1.2,0-2.3,0.1-3.5,0.2
					c-23.6,2.5-40.8,23.7-38.3,47.4c1.2,10.8,6.3,20.3,13.7,27.2h123.2C316.6,202.2,323.1,189.8,323.7,177.5z"/>
			</g>
		</g>
		<path class="st31" d="M200.9,119.8c0,2.8-2.3,5.1-5.1,5.1s-5.1-2.3-5.1-5.1c0-2.8,2.3-5.1,5.1-5.1S200.9,117,200.9,119.8z"/>
		<circle class="st31" cx="305.9" cy="100.4" r="4.5"/>
		<path class="st31" d="M329.9,144c0,1.7-1.4,3-3,3c-1.7,0-3-1.4-3-3c0-1.7,1.4-3,3-3C328.6,141,329.9,142.3,329.9,144z"/>
		<path class="st31" d="M161.2,183c0,1.7-1.4,3-3,3c-1.7,0-3-1.4-3-3c0-1.7,1.4-3,3-3S161.2,181.3,161.2,183z"/>
		<g>
			<g>
				<g>
					<g>
						<path class="st14" d="M312.4,182.5c0.7-16.2-7.3-30-19.4-37.9c-2.3-1.5-3.7-3.9-4-6.6c0-0.1,0-0.3-0.1-0.4
							c-2.2-17.7-18.8-30.2-36.5-27.8c-16.9,2.3-29.1,11.2-27.3,28.4c0,0.1,0,0.2,0,0.3c0.3,4.7-3.4,8.6-8,8.7c-1,0-2,0.1-3,0.2
							c-20.2,2.1-34.8,20.2-32.6,40.5c1,9.3,5.3,17.4,11.7,23.2h105.1C306.4,203.5,311.9,192.9,312.4,182.5z"/>
					</g>
				</g>
			</g>
		</g>
	</g>
	<g class="st11">
		<g>
			<g>
				<g>
					<path class="st32" d="M300.7,198.9H199.3V131c0-1.1,0.9-2.1,2.1-2.1h97.2c1.1,0,2.1,0.9,2.1,2.1V198.9z"/>
					<path class="st18" d="M301,199.2H199.1V131c0-1.3,1-2.3,2.3-2.3h97.2c1.3,0,2.3,1,2.3,2.3v68.2H301z M199.6,198.7h100.8V131
						c0-1-0.8-1.8-1.8-1.8h-97.2c-1,0-1.8,0.8-1.8,1.8L199.6,198.7L199.6,198.7z"/>
				</g>
				<g>
					<rect x="243.5" y="195.1" class="st32" width="13" height="1"/>
					<path class="st18" d="M256.8,196.4h-13.5v-1.6h13.5V196.4z M243.8,195.9h12.5v-0.5h-12.5L243.8,195.9L243.8,195.9z"/>
				</g>
				<g>
					<path class="st32" d="M250.8,131.9c0,0.4-0.4,0.8-0.8,0.8c-0.4,0-0.8-0.3-0.8-0.8s0.4-0.8,0.8-0.8
						C250.5,131.1,250.8,131.4,250.8,131.9z"/>
					<path class="st18" d="M250,132.9c-0.6,0-1.1-0.5-1.1-1c0-0.6,0.5-1,1.1-1s1.1,0.5,1.1,1S250.6,132.9,250,132.9z M250,131.4
						c-0.3,0-0.5,0.2-0.5,0.5s0.2,0.5,0.5,0.5s0.5-0.2,0.5-0.5C250.6,131.6,250.3,131.4,250,131.4z"/>
				</g>
				<g>
					<path class="st18" d="M311.4,211.2h-123c-1.3,0-2.4-0.7-2.4-1.6v-2.5c0-0.3,0.3-0.5,0.7-0.5h126.6c0.4,0,0.7,0.2,0.7,0.5v2.5
						C314,210.5,312.8,211.2,311.4,211.2z"/>
					<path class="st18" d="M311.4,211.5h-123c-1.5,0-2.7-0.8-2.7-1.9v-2.5c0-0.4,0.4-0.7,0.9-0.7h126.6c0.5,0,0.9,0.3,0.9,0.7v2.5
						C314.2,210.6,313,211.5,311.4,211.5z M186.7,206.9c-0.3,0-0.4,0.1-0.4,0.2v2.5c0,0.7,1,1.4,2.2,1.4h123c1.2,0,2.3-0.7,2.3-1.4
						v-2.5c0-0.1-0.2-0.2-0.4-0.2H186.7z"/>
				</g>
			</g>
			<g>
				<g>
					<g>
						<path class="st12" d="M206.1,193.7H294c1.2,0,2.3-1,2.3-2.3v-54.7c0-1.2-1-2.3-2.3-2.3h-87.9c-1.2,0-2.3,1-2.3,2.3v54.7
							C203.8,192.7,204.8,193.7,206.1,193.7z"/>
						<path class="st18" d="M294,193.9h-87.9c-1.4,0-2.5-1.1-2.5-2.5v-54.7c0-1.4,1.1-2.5,2.5-2.5H294c1.4,0,2.5,1.1,2.5,2.5v54.7
							C296.5,192.8,295.4,193.9,294,193.9z M206.1,134.8c-1.1,0-2,0.9-2,2v54.7c0,1.1,0.9,2,2,2H294c1.1,0,2-0.9,2-2v-54.7
							c0-1.1-0.9-2-2-2H206.1z"/>
					</g>
					<g>
						<path class="st19" d="M295.8,138.5v-1.6c0-1.1-1-2.1-2.2-2.1h-87.2c-1.2,0-2.2,0.9-2.2,2.1v1.6H295.8z"/>
						<path class="st12" d="M288.1,136.8c0,0.3-0.2,0.5-0.5,0.5s-0.5-0.2-0.5-0.5s0.2-0.5,0.5-0.5S288.1,136.5,288.1,136.8z"/>
						<circle class="st12" cx="289.6" cy="136.8" r="0.5"/>
						<circle class="st12" cx="291.7" cy="136.8" r="0.5"/>
					</g>
				</g>
			</g>
			<rect x="211.7" y="145" class="st15" width="75.9" height="41"/>
			<g>
				<polygon class="st32" points="199.7,198.7 186.4,206.6 186.4,206.6 313.3,206.5 301,198.8 				"/>
				<path class="st18" d="M186.5,206.8L186.5,206.8l-0.1-0.3l-0.1-0.2l13.4-7.9h0.1h101.4l13.1,8.3L186.5,206.8z M199.8,199
					l-12.4,7.3l125-0.1L301,199H199.8z"/>
			</g>
			<g class="st33">
				<polygon class="st32" points="216.5,198.7 207.7,203.9 207.7,203.9 292,203.9 283.9,198.8 				"/>
				<path class="st18" d="M206.7,204.2l9.7-5.7h67.5l9,5.7H206.7z M216.6,199l-7.9,4.7h82.5l-7.3-4.6L216.6,199z"/>
			</g>
		</g>
		<g>
			<path class="st18" d="M238.2,162.1c-0.4,0-0.8-0.4-0.8-0.8c0-1.7-1.4-3.1-3.1-3.1c-1.7,0-3.1,1.4-3.1,3.1c0,0.4-0.4,0.8-0.8,0.8
				s-0.8-0.4-0.8-0.8c0-2.6,2.1-4.7,4.7-4.7c2.6,0,4.7,2.1,4.7,4.7C239,161.8,238.6,162.1,238.2,162.1z"/>
			<path class="st18" d="M269.7,162.1c-0.4,0-0.8-0.4-0.8-0.8c0-1.7-1.4-3.1-3.1-3.1s-3.1,1.4-3.1,3.1c0,0.4-0.4,0.8-0.8,0.8
				s-0.8-0.4-0.8-0.8c0-2.6,2.1-4.7,4.7-4.7s4.7,2.1,4.7,4.7C270.4,161.8,270.1,162.1,269.7,162.1z"/>
			<path class="st18" d="M250,178.9c-7.1,0-13-5.8-13.1-12.9c0-0.3,0.1-0.6,0.3-0.8s0.5-0.3,0.8-0.3h25.2v0.8
				C263.1,173,257.2,178.9,250,178.9z M238.4,166.5c0.4,6,5.5,10.8,11.5,10.8c6.1,0,11.1-4.8,11.5-10.8H238.4z"/>
		</g>
		<path class="st18" d="M295.8,138.8H225c-0.2,0-0.3-0.1-0.3-0.3s0.1-0.3,0.3-0.3h70.8c0.2,0,0.3,0.1,0.3,0.3
			C296.1,138.6,296,138.8,295.8,138.8z"/>
	</g>
	<g class="st11">
		<path class="st18" d="M281.9,129.2v-9c0-4.8,3.5-8.7,7.9-8.7h6.4c4.3,0,7.9,3.9,7.9,8.7v9c0,4.8-3.5,8.7-7.9,8.7h-6.4
			C285.4,137.9,281.9,134,281.9,129.2z M289.7,115.6c-2.3,0-4.2,2.1-4.2,4.6v9c0,2.5,1.9,4.6,4.2,4.6h6.4c2.3,0,4.2-2.1,4.2-4.6v-9
			c0-2.5-1.9-4.6-4.2-4.6H289.7z"/>
		<path class="st12" d="M296.1,138.1h-6.4c-4.5,0-8.1-4-8.1-9v-9c0-4.9,3.6-9,8.1-9h6.4c4.5,0,8.1,4,8.1,9v9
			C304.2,134.1,300.6,138.1,296.1,138.1z M289.7,111.7c-4.2,0-7.6,3.8-7.6,8.5v9c0,4.7,3.4,8.5,7.6,8.5h6.4c4.2,0,7.6-3.8,7.6-8.5
			v-9c0-4.7-3.4-8.5-7.6-8.5H289.7z M296.1,134h-6.4c-2.4,0-4.4-2.2-4.4-4.9v-9c0-2.7,2-4.9,4.4-4.9h6.4c2.4,0,4.4,2.2,4.4,4.9v9
			C300.5,131.9,298.5,134,296.1,134z M289.7,115.8c-2.2,0-3.9,2-3.9,4.4v9c0,2.4,1.8,4.4,3.9,4.4h6.4c2.2,0,3.9-2,3.9-4.4v-9
			c0-2.4-1.8-4.4-3.9-4.4C296.1,115.8,289.7,115.8,289.7,115.8z"/>
	</g>
	<path class="st34" d="M280.6,152.8h24.7c2.1,0,3.8-1.7,3.8-3.8v-19.2c0-2.1-1.7-3.8-3.8-3.8h-24.7c-2.1,0-3.8,1.7-3.8,3.8V149
		C276.8,151.2,278.5,152.8,280.6,152.8z"/>
	<path class="st35" d="M305.9,153.1h-9c-0.1,0-0.2-0.1-0.2-0.2s0.1-0.2,0.2-0.2h9c1.6,0,2.8-1.3,2.8-2.8V132c0-0.1,0.1-0.2,0.2-0.2
		s0.2,0.1,0.2,0.2v17.9C309.3,151.6,307.8,153.1,305.9,153.1z"/>
	<path class="st36" d="M282.8,150.5h20.3c2.1,0,3.8-1.7,3.8-3.8v-13.2c0-2.1-1.7-3.8-3.8-3.8h-20.3c-2.1,0-3.8,1.7-3.8,3.8v13.2
		C279,148.8,280.7,150.5,282.8,150.5z"/>
	<path class="st35" d="M289.2,137.2c0-2.1,1.7-3.8,3.8-3.8c2.1,0,3.8,1.7,3.8,3.8c0,1.7-1.1,3.1-2.7,3.6v4.9h-2.2v-4.9
		C290.3,140.3,289.2,138.9,289.2,137.2z"/>
	<path class="st35" d="M322.9,211.6H177.4c-0.2,0-0.4-0.2-0.4-0.4s0.2-0.4,0.4-0.4H323c0.2,0,0.4,0.2,0.4,0.4
		C323.3,211.4,323.2,211.6,322.9,211.6z"/>
	<g class="st11">
		<path class="st19" d="M315,129.3c0,3.3-2.7,6.1-6.1,6.1c-3.3,0-6.1-2.7-6.1-6.1c0-3.3,2.7-6.1,6.1-6.1
			C312.3,123.3,315,126,315,129.3z"/>
		<path class="st18" d="M303.2,135c-0.1-0.1-0.1-0.3,0-0.4s0.3-0.1,0.4,0c3,3,7.9,3,10.9,0s3-7.9,0-10.9s-7.9-3-10.9,0
			c-0.1,0.1-0.3,0.1-0.4,0s-0.1-0.3,0-0.4c3.2-3.2,8.4-3.2,11.6,0s3.2,8.4,0,11.6C311.6,138.2,306.4,138.2,303.2,135z"/>
		<g>
			<g>
				<path class="st12" d="M308.9,132.6c-0.2,0-0.4-0.1-0.6-0.2c-0.2-0.1-0.2-0.3-0.2-0.5s0.1-0.4,0.2-0.5c0.2-0.1,0.3-0.2,0.6-0.2
					c0.2,0,0.4,0.1,0.6,0.2c0.1,0.1,0.2,0.3,0.2,0.5s-0.1,0.4-0.2,0.5C309.3,132.5,309.1,132.6,308.9,132.6z M309.6,126.9l-0.1,3.1
					c0,0.3-0.3,0.6-0.6,0.6l0,0c-0.3,0-0.6-0.2-0.6-0.6l-0.1-3.1c0-0.3,0.3-0.6,0.6-0.6h0.2C309.3,126.3,309.6,126.5,309.6,126.9z"
					/>
			</g>
		</g>
	</g>
</g>
<g id="DESIGNED_BY_FREEPIK" class="st10">
	<g class="st11">
		<g>
			<g id="XMLID_197_">
				<g id="XMLID_216_">
					<path id="XMLID_224_" class="st12" d="M260.1,463.6c-0.4,0.4-0.8,0.9-1.1,1.4l-0.5-0.2c-0.1-0.3-0.3-0.5-0.7-0.5
						c-0.3,0-0.6,0.3-0.5,0.7c0,0.3,0.3,0.6,0.7,0.5c0.1,0,0.1,0,0.2-0.1l0.4,0.2c-0.2,0.6-0.4,1.1-0.5,1.7l0.7,0.1
						c0.2-1.3,0.8-2.5,1.8-3.5L260.1,463.6z"/>
					<path id="XMLID_223_" class="st12" d="M265.5,461.3c-0.2,0-0.3,0-0.5,0l-0.1-0.6c0.2-0.1,0.3-0.4,0.3-0.6
						c0-0.4-0.4-0.7-0.8-0.6c-0.4,0-0.7,0.4-0.6,0.8c0,0.3,0.2,0.5,0.4,0.6l0.1,0.6c-0.7,0.1-1.4,0.3-2.1,0.6l0.3,0.7
						c0.9-0.4,1.9-0.7,3-0.7c0.5,0,1,0.1,1.5,0.2l0.2-0.7C266.6,461.4,266.1,461.3,265.5,461.3z"/>
					<path id="XMLID_222_" class="st12" d="M272.1,463.9c0.3,0,0.6-0.3,0.5-0.7c0-0.3-0.3-0.6-0.7-0.5c-0.3,0-0.5,0.3-0.5,0.6
						l-0.4,0.4c-0.4-0.4-0.9-0.8-1.4-1.1l-0.4,0.6c1.1,0.7,2,1.7,2.6,2.9l0.7-0.3c-0.2-0.6-0.6-1.1-0.9-1.5l0.4-0.3
						C272,463.9,272,463.9,272.1,463.9z"/>
					<path id="XMLID_221_" class="st12" d="M265,471.5c-0.4,0-0.8,0-1.2,0c-0.9,0-1.7-0.1-2.5-0.2c-0.4-0.1-0.8-0.2-1.3-0.3
						c1,1.9,3.1,3.1,5.4,3.1c2.8,0,5.2-1.9,5.9-4.5c-0.7,0.4-1.5,0.8-2.4,1.1C267.8,471.2,266.4,471.4,265,471.5z"/>
					<path id="XMLID_217_" class="st12" d="M265.5,462.8c-3.3,0-6.1,2.7-6.1,5.9c0,0.4,0,0.8,0.1,1.3c0.7,0.5,2.7,0.9,5.3,0.7
						c2.9-0.2,5.3-1,6.6-2.1c0-0.2,0-0.4,0-0.6C271.2,465,268.6,462.8,265.5,462.8z M263.4,469.3c-1,0-1.8-0.8-1.8-1.8
						s0.8-1.8,1.8-1.8s1.8,0.8,1.8,1.8S264.4,469.3,263.4,469.3z M268.1,468.4c-0.7,0-1.4-0.6-1.4-1.4s0.6-1.4,1.4-1.4
						c0.7,0,1.4,0.6,1.4,1.4S268.8,468.4,268.1,468.4z"/>
				</g>
				<path id="XMLID_214_" class="st12" d="M281.5,464.7c-0.3-0.1-0.8-0.3-1.4-0.2c-0.5,0.1-0.8,0.3-0.8,1v0.9h2.2v1.7h-2.2v5.4h-1.9
					V468H276v-1.7h1.3v-0.9c0-1.7,0.9-2.8,2.6-2.8c0.6,0,1.2,0.1,1.6,0.3V464.7z"/>
				<path id="XMLID_212_" class="st12" d="M286.2,468c-0.2,0-0.4,0-0.5,0c-0.9,0-1.5,0.5-1.5,1.6v3.9h-1.9v-7.1h1.9v0.8
					c0.4-0.7,1.1-1,2-1c0.4,0,0.8,0.1,1.1,0.3L286.2,468z"/>
				<path id="XMLID_209_" class="st12" d="M293.8,469.9c0,0.2,0,0.5,0,0.6h-5.1c0.2,1,0.9,1.5,1.8,1.5c0.6,0,1.3-0.3,1.8-0.7
					l1.1,1.2c-0.8,0.7-1.8,1.1-3,1.1c-2.2,0-3.7-1.5-3.7-3.7s1.5-3.8,3.6-3.8C292.4,466.1,293.8,467.6,293.8,469.9z M288.7,469.2
					h3.2c-0.2-0.9-0.7-1.4-1.6-1.4C289.4,467.8,288.9,468.3,288.7,469.2z"/>
				<path id="XMLID_206_" class="st12" d="M301.4,469.9c0,0.2,0,0.5,0,0.6h-5.1c0.2,1,0.9,1.5,1.8,1.5c0.6,0,1.3-0.3,1.8-0.7
					l1.1,1.2c-0.8,0.7-1.8,1.1-3,1.1c-2.2,0-3.7-1.5-3.7-3.7s1.5-3.8,3.6-3.8C300,466.1,301.4,467.6,301.4,469.9z M296.3,469.2h3.2
					c-0.2-0.9-0.7-1.4-1.6-1.4C297,467.8,296.5,468.3,296.3,469.2z"/>
				<path id="XMLID_203_" class="st12" d="M309.7,469.9c0,2.1-1.5,3.8-3.5,3.8c-1,0-1.6-0.4-2.1-0.9v3.7h-1.9v-10.1h1.9v0.8
					c0.5-0.6,1.2-1,2.1-1C308.2,466.1,309.7,467.7,309.7,469.9z M304.1,469.9c0,1.1,0.7,2,1.8,2c1.1,0,1.8-0.9,1.8-2s-0.7-2-1.8-2
					C304.8,467.9,304.1,468.8,304.1,469.9z"/>
				<path id="XMLID_200_" class="st12" d="M312.8,464c0,0.7-0.5,1.2-1.2,1.2s-1.2-0.5-1.2-1.2s0.5-1.2,1.2-1.2
					C312.3,462.7,312.8,463.3,312.8,464z M312.6,473.5h-1.9v-7.1h1.9V473.5z"/>
				<path id="XMLID_198_" class="st12" d="M315.8,468.9l2.7-2.5h2.4l-3.5,3.4l3.5,3.8h-2.4l-2.7-2.9v2.9h-1.9V463h1.9V468.9z"/>
			</g>
			<g>
				<path class="st12" d="M184.7,473.4v-1.1c-0.5,0.7-1.4,1.2-2.4,1.2c-1.8,0-3.1-1.4-3.1-3.7c0-2.2,1.3-3.7,3.1-3.7
					c0.9,0,1.8,0.5,2.4,1.2v-3.7h1.1v9.7h-1.1V473.4z M184.7,471.5v-3.2c-0.4-0.6-1.2-1.1-2.1-1.1c-1.4,0-2.3,1.2-2.3,2.7
					c0,1.6,0.8,2.7,2.3,2.7C183.4,472.6,184.3,472.1,184.7,471.5z"/>
				<path class="st12" d="M187.2,469.9c0-2,1.5-3.7,3.5-3.7c2.1,0,3.4,1.7,3.4,3.8v0.3h-5.7c0.1,1.3,1,2.4,2.5,2.4
					c0.8,0,1.6-0.3,2.2-0.9l0.5,0.7c-0.7,0.7-1.6,1.1-2.8,1.1C188.7,473.6,187.2,472.1,187.2,469.9z M190.6,467.1
					c-1.5,0-2.2,1.3-2.3,2.3h4.6C192.9,468.4,192.2,467.1,190.6,467.1z"/>
				<path class="st12" d="M194.8,472.5l0.6-0.8c0.5,0.5,1.4,1,2.3,1c1.1,0,1.7-0.5,1.7-1.2c0-1.7-4.4-0.7-4.4-3.3c0-1.1,0.9-2,2.6-2
					c1.2,0,2,0.5,2.6,1l-0.5,0.8c-0.4-0.5-1.2-0.9-2.1-0.9c-1,0-1.6,0.5-1.6,1.1c0,1.5,4.4,0.5,4.4,3.3c0,1.2-0.9,2.1-2.8,2.1
					C196.5,473.6,195.5,473.2,194.8,472.5z"/>
				<path class="st12" d="M201.7,464.6c0-0.4,0.3-0.7,0.7-0.7s0.7,0.3,0.7,0.7c0,0.4-0.3,0.7-0.7,0.7
					C202,465.3,201.7,465,201.7,464.6z M201.9,473.4v-7h1.1v7H201.9z"/>
				<path class="st12" d="M204.8,475.2l0.6-0.8c0.6,0.7,1.3,1,2.3,1c1.2,0,2.3-0.6,2.3-2.1v-1c-0.5,0.7-1.4,1.3-2.4,1.3
					c-1.8,0-3.1-1.4-3.1-3.6c0-2.3,1.3-3.7,3.1-3.7c0.9,0,1.8,0.5,2.4,1.2v-1.1h1.1v6.8c0,2.3-1.6,3.1-3.4,3.1
					C206.4,476.3,205.6,476,204.8,475.2z M209.9,471.4v-3.1c-0.4-0.6-1.2-1.1-2.1-1.1c-1.4,0-2.3,1.1-2.3,2.7c0,1.5,0.8,2.7,2.3,2.7
					C208.6,472.5,209.5,472,209.9,471.4z"/>
				<path class="st12" d="M217.5,473.4v-4.6c0-1.2-0.6-1.6-1.6-1.6c-0.9,0-1.7,0.5-2.1,1.1v5.1h-1.1v-7h1.1v1
					c0.5-0.6,1.5-1.2,2.5-1.2c1.5,0,2.2,0.7,2.2,2.3v4.9L217.5,473.4L217.5,473.4z"/>
				<path class="st12" d="M220.1,469.9c0-2,1.5-3.7,3.5-3.7c2.1,0,3.4,1.7,3.4,3.8v0.3h-5.7c0.1,1.3,1,2.4,2.5,2.4
					c0.8,0,1.6-0.3,2.2-0.9l0.5,0.7c-0.7,0.7-1.6,1.1-2.8,1.1C221.6,473.6,220.1,472.1,220.1,469.9z M223.5,467.1
					c-1.5,0-2.2,1.3-2.3,2.3h4.6C225.8,468.4,225.1,467.1,223.5,467.1z"/>
				<path class="st12" d="M233.4,473.4v-1.1c-0.5,0.7-1.4,1.2-2.4,1.2c-1.8,0-3.1-1.4-3.1-3.7c0-2.2,1.3-3.7,3.1-3.7
					c0.9,0,1.8,0.5,2.4,1.2v-3.7h1.1v9.7h-1.1V473.4z M233.4,471.5v-3.2c-0.4-0.6-1.2-1.1-2.1-1.1c-1.4,0-2.3,1.2-2.3,2.7
					c0,1.6,0.8,2.7,2.3,2.7C232.2,472.6,233,472.1,233.4,471.5z"/>
				<path class="st12" d="M239.7,473.4v-9.7h1.1v3.7c0.6-0.8,1.4-1.2,2.4-1.2c1.8,0,3.1,1.5,3.1,3.7c0,2.3-1.3,3.7-3.1,3.7
					c-1,0-1.9-0.5-2.4-1.2v1.1h-1.1V473.4z M242.9,472.6c1.4,0,2.3-1.2,2.3-2.7c0-1.6-0.8-2.7-2.3-2.7c-0.9,0-1.7,0.5-2.1,1.1v3.2
					C241.2,472.1,242.1,472.6,242.9,472.6z"/>
				<path class="st12" d="M247.5,475.2c0.2,0.1,0.4,0.1,0.6,0.1c0.5,0,0.8-0.2,1.1-0.7l0.5-1.1l-2.9-7.1h1.2l2.3,5.8l2.3-5.8h1.2
					l-3.5,8.5c-0.4,1-1.1,1.4-2.1,1.4c-0.2,0-0.6,0-0.8-0.1L247.5,475.2z"/>
			</g>
		</g>
	</g>
</g>
</svg>
